<?xml version="1.0" standalone="no"?>
<!DOCTYPE svg PUBLIC "-//W3C//DTD SVG 20010904//EN"
 "http://www.w3.org/TR/2001/REC-SVG-20010904/DTD/svg10.dtd">
<svg version="1.0" xmlns="http://www.w3.org/2000/svg"
 width="40.000000pt" height="39.000000pt" viewBox="0 0 40.000000 39.000000"
 preserveAspectRatio="xMidYMid meet">

<g transform="translate(0.000000,39.000000) scale(0.100000,-0.100000)"
fill="#000000" stroke="none">
<path d="M115 347 c-119 -67 -125 -227 -12 -311 23 -17 43 -21 101 -21 65 0
77 3 110 29 50 38 80 104 73 163 -14 129 -159 204 -272 140z m84 -29 c21 2 41
0 44 -5 3 -5 -17 -8 -44 -7 -46 1 -62 -7 -39 -21 6 -4 8 -11 4 -16 -7 -12 -34
8 -34 25 0 15 24 40 27 29 2 -5 21 -7 42 -5z m98 -35 c17 -27 33 -64 37 -83 5
-30 2 -27 -22 23 -24 49 -31 56 -41 43 -7 -8 -10 -19 -7 -25 4 -5 -3 -12 -14
-16 -11 -3 -20 -10 -20 -15 0 -5 7 -7 15 -4 8 4 15 1 15 -5 0 -6 -10 -11 -22
-12 l-23 0 23 -9 c12 -5 22 -14 22 -20 0 -6 -5 -8 -12 -4 -7 5 -31 7 -53 6
-37 -2 -39 -2 -21 13 19 15 19 15 -2 15 -24 0 -30 15 -9 23 9 4 8 8 -3 16 -12
9 -9 11 15 12 17 0 24 3 18 6 -19 7 -16 43 3 50 9 3 25 1 35 -5 26 -17 29 -15
29 13 0 14 1 25 3 25 2 0 17 -21 34 -47z m-167 -12 c0 -5 -7 -14 -15 -21 -8
-7 -15 -18 -15 -24 0 -7 -7 -21 -15 -32 -14 -18 -15 -17 -9 11 4 17 13 40 20
53 14 22 34 30 34 13z m-75 -81 c3 -5 1 -10 -4 -10 -6 0 -11 5 -11 10 0 6 2
10 4 10 3 0 8 -4 11 -10z m255 -4 c0 -3 -4 -8 -10 -11 -5 -3 -10 -1 -10 4 0 6
5 11 10 11 6 0 10 -2 10 -4z m-250 -36 c0 -5 -2 -10 -4 -10 -3 0 -8 5 -11 10
-3 6 -1 10 4 10 6 0 11 -4 11 -10z m65 -38 c-4 -4 -10 -1 -12 6 -3 6 -9 10
-14 6 -5 -3 -9 1 -9 10 0 8 6 16 13 19 14 5 34 -30 22 -41z m211 26 c4 -6 3
-8 -4 -4 -5 3 -12 1 -14 -6 -3 -8 -7 -6 -11 5 -7 20 17 24 29 5z m-133 -35
c-11 -15 -18 -34 -16 -40 7 -21 -5 -15 -18 8 -8 15 -8 19 0 15 6 -4 11 -2 11
5 0 13 32 49 39 43 2 -1 -6 -15 -16 -31z m37 -18 c0 -8 -4 -15 -10 -15 -5 0
-7 7 -4 15 4 8 8 15 10 15 2 0 4 -7 4 -15z m21 -8 c-10 -9 -11 -8 -5 6 3 10 9
15 12 12 3 -3 0 -11 -7 -18z m44 13 c-3 -5 -11 -10 -16 -10 -6 0 -7 5 -4 10 3
6 11 10 16 10 6 0 7 -4 4 -10z m-175 -14 c-7 -7 -13 -7 -20 0 -6 6 -3 10 10
10 13 0 16 -4 10 -10z m100 -38 c0 -6 -7 -5 -15 2 -8 7 -15 17 -15 22 0 6 7 5
15 -2 8 -7 15 -17 15 -22z"/>
<path d="M190 210 c0 -5 7 -7 15 -4 8 4 15 8 15 10 0 2 -7 4 -15 4 -8 0 -15
-4 -15 -10z"/>
</g>
</svg>
